<svg width="24" height="24" viewBox="0 0 24 24" fill="none" xmlns="http://www.w3.org/2000/svg">
<rect width="23.901" height="24" rx="1" fill="#016FD0"/>
<path d="M9.32185 4.90397C10.5508 4.90579 11.7789 4.90126 13.0079 4.90579C13.448 5.88933 13.8719 6.88103 14.3274 7.85824C14.3419 6.87378 14.3319 5.88933 14.3329 4.90488C15.8525 4.90397 17.3731 4.90216 18.8937 4.90579C19.1555 5.6439 19.3991 6.38926 19.6898 7.1165C19.9624 6.38292 20.2178 5.6439 20.4805 4.90669C21.6533 4.90126 22.827 4.90579 23.9998 4.90397V5.8685C23.0643 5.86941 22.1288 5.8676 21.1932 5.87031C20.6906 7.25326 20.2142 8.64707 19.6853 10.02C19.1808 8.63982 18.6927 7.25416 18.1973 5.87122C17.2391 5.86669 16.2809 5.8685 15.3227 5.86941C15.3209 8.09462 15.3327 10.3198 15.3173 12.5441C14.3039 10.3298 13.3511 8.08646 12.3504 5.86578C11.5606 5.87303 10.7709 5.86397 9.98117 5.87212C9.00125 8.11907 8.00231 10.3579 7.01605 12.6021C7.69167 12.6003 8.36639 12.6084 9.04201 12.5957C9.22223 12.1456 9.41061 11.6991 9.59627 11.2517C10.6269 11.2517 11.6575 11.2545 12.6882 11.2508C12.8802 11.6946 13.0686 12.1411 13.2497 12.5903C14.5439 12.6175 15.839 12.5948 17.1341 12.6021C17.1458 11.0462 17.1123 9.48843 17.1504 7.93341C17.7264 9.48571 18.2915 11.0425 18.8657 12.5957C19.4036 12.6057 19.9407 12.603 20.4786 12.6003C21.0519 11.0462 21.6017 9.48299 22.1985 7.93794C22.2248 9.49205 22.2012 11.0471 22.2103 12.6021C22.8071 12.6021 23.403 12.6021 23.9998 12.6021V13.563C23.2155 13.5666 22.4321 13.563 21.6488 13.5648C20.9949 14.2812 20.3337 14.9912 19.688 15.7139C19.0341 15.003 18.3866 14.2857 17.7408 13.5666C16.9466 13.5585 16.1523 13.5739 15.359 13.5576C15.378 13.5947 15.4151 13.6699 15.4341 13.7079C16.4702 14.763 17.471 15.8543 18.4862 16.9302C17.4284 18.0415 16.3842 19.1663 15.3255 20.2767C15.3245 19.7613 15.3255 19.2451 15.3255 18.7298C14.0286 18.7289 12.7317 18.7289 11.4348 18.7298C11.4357 18.382 11.4357 18.0351 11.4348 17.6874C12.699 17.6874 13.9643 17.6883 15.2295 17.6874C15.2285 17.182 15.2285 16.6767 15.2313 16.1713C13.9679 16.1631 12.7036 16.165 11.4402 16.1704C11.4357 15.8217 11.4357 15.4721 11.4357 15.1225C12.7326 15.1162 14.0295 15.1207 15.3255 15.1198C15.3245 14.6416 15.3164 14.1634 15.3409 13.6862C15.2956 13.64 15.2512 13.5947 15.205 13.5503C13.3348 13.5838 11.4628 13.5539 9.59174 13.5657C9.6008 15.8099 9.57453 18.0551 9.60532 20.2984C12.2888 20.2993 14.9722 20.2966 17.6557 20.2993C18.3214 19.5739 18.9807 18.8439 19.6463 18.1176C20.3029 18.8484 20.9605 19.5784 21.6279 20.3002C22.4186 20.2966 23.2092 20.3011 23.9998 20.2966V21.2493C23.0435 21.2511 22.088 21.2493 21.1316 21.2502C20.6272 20.7041 20.1318 20.1499 19.6355 19.5974C19.1346 20.1453 18.6311 20.6914 18.1384 21.2475C14.9514 21.252 11.7635 21.253 8.57559 21.2466C8.58284 18.6854 8.57378 16.1242 8.58012 13.563C7.5522 13.5603 6.52337 13.563 5.49545 13.5621C6.76971 10.6757 8.04488 7.7885 9.32185 4.90397V4.90397Z" fill="white"/>
<path d="M10.233 9.73761C10.5436 9.0158 10.8126 8.27588 11.154 7.56856C11.4511 8.29218 11.7608 9.01127 12.0497 9.73852C11.4438 9.73852 10.838 9.74033 10.233 9.73761H10.233Z" fill="white"/>
<path d="M20.8374 16.911C21.8862 15.7997 22.9449 14.6984 24 13.5935V14.9647C23.414 15.6358 22.7701 16.2544 22.1724 16.9155C22.7882 17.5594 23.4013 18.206 24 18.8663V20.2737C22.9594 19.1407 21.8925 18.0313 20.8374 16.911H20.8374Z" fill="white"/>
</svg>
