<svg width="70" height="48" viewBox="0 0 70 48" fill="none" xmlns="http://www.w3.org/2000/svg">
<g id="Payment/Mastercard">
<g id="MS">
<path id="path" d="M43.5616 40.9778H25.0134V6.66846H43.5616V40.9778Z" fill="#FF5F00"/>
<path id="path_2" d="M26.2016 23.8196C26.2016 16.8598 29.3677 10.6602 34.298 6.66496C30.6926 3.74342 26.1423 1.99965 21.1972 1.99965C9.49001 1.99965 0 11.7686 0 23.8196C0 35.8707 9.49001 45.6396 21.1972 45.6396C26.1423 45.6396 30.6926 43.8959 34.298 40.9743C29.3677 36.9791 26.2016 30.7795 26.2016 23.8196Z" fill="#EB001B"/>
<path id="path_3" d="M68.5771 23.8196C68.5771 35.8707 59.0871 45.6396 47.3799 45.6396C42.4347 45.6396 37.8845 43.8959 34.2777 40.9743C39.2094 36.9791 42.3754 30.7795 42.3754 23.8196C42.3754 16.8598 39.2094 10.6602 34.2777 6.66496C37.8845 3.74342 42.4347 1.99965 47.3799 1.99965C59.0871 1.99965 68.5771 11.7686 68.5771 23.8196Z" fill="#F79E1B"/>
</g>
</g>
</svg>
