<svg width="96" height="24" viewBox="0 0 96 24" fill="none" xmlns="http://www.w3.org/2000/svg">
<path fill-rule="evenodd" clip-rule="evenodd" d="M90.371 19.9521L92.597 5.74966C92.6311 5.52936 92.8214 5.36712 93.0427 5.36633H95.5486C95.8254 5.36633 96.0379 5.61526 95.9943 5.89043L93.7992 19.8367C93.7421 20.205 93.4265 20.4754 93.0546 20.4754H90.8166C90.5399 20.4754 90.3274 20.2272 90.371 19.9521ZM73.3241 5.36693H67.8998C67.5294 5.36693 67.2138 5.63733 67.1559 6.00476L64.9624 19.9519C64.9188 20.227 65.1313 20.4752 65.4081 20.4752H68.1916C68.4501 20.4752 68.6714 20.2859 68.7118 20.0282L69.3344 16.0748C69.3915 15.7066 69.7079 15.4362 70.0782 15.4362H71.7943C75.3677 15.4362 77.4288 13.7024 77.968 10.2667C78.2115 8.76364 77.9775 7.58262 77.2757 6.75552C76.5057 5.84729 75.1393 5.36693 73.3241 5.36693ZM73.9498 10.4621C73.654 12.4138 72.1671 12.4138 70.7285 12.4138H69.9109L70.4859 8.76895C70.52 8.54866 70.7087 8.38642 70.9316 8.38642H71.3067C72.2852 8.38642 73.2099 8.38642 73.6873 8.94631C73.972 9.28033 74.0584 9.7766 73.9498 10.4621ZM86.9395 10.398H89.5351C89.8135 10.398 90.026 10.647 89.9832 10.9213L88.5787 19.8358C88.5208 20.204 88.2052 20.4744 87.8349 20.4744H85.4962C85.2179 20.4744 85.0054 20.2263 85.049 19.9496L85.1648 19.2258C85.1648 19.2258 83.8824 20.717 81.57 20.717C80.2226 20.717 79.0918 20.3273 78.2987 19.392C77.4359 18.3749 77.0846 16.9163 77.3321 15.3909C77.8095 12.333 80.2599 10.1531 83.1299 10.1531C84.3812 10.1531 85.6342 10.4267 86.1965 11.245L86.3789 11.5091L86.4939 10.7806C86.5272 10.5603 86.7167 10.398 86.9395 10.398ZM85.9149 15.4683C85.6659 16.9563 84.4867 17.9552 82.9847 17.9552C82.2321 17.9552 81.6278 17.7127 81.2408 17.253C80.857 16.7965 80.7127 16.1467 80.8332 15.423C81.0688 13.9477 82.2646 12.9162 83.7436 12.9162C84.4811 12.9162 85.0807 13.162 85.4756 13.6256C85.8729 14.0941 86.0299 14.7478 85.9149 15.4683Z" fill="#179BD7"/>
<path fill-rule="evenodd" clip-rule="evenodd" d="M34.6396 5.36789H29.2161C28.845 5.36789 28.5293 5.63829 28.4714 6.00572L26.2779 19.9528C26.2343 20.228 26.4469 20.4761 26.7252 20.4761H29.3144C29.6856 20.4761 30.0012 20.2057 30.0591 19.8375L30.6507 16.0758C30.7078 15.7075 31.0242 15.4371 31.3945 15.4371H33.1114C36.684 15.4371 38.7459 13.7034 39.2843 10.2677C39.527 8.7646 39.2946 7.58358 38.5928 6.75648C37.822 5.84825 36.4548 5.36789 34.6396 5.36789ZM35.2653 10.4622C34.9687 12.4138 33.4818 12.4138 32.0441 12.4138H31.2257L31.7998 8.76898C31.8339 8.54868 32.0242 8.38644 32.2463 8.38644H32.6214C33.6008 8.38644 34.5246 8.38644 35.002 8.94633C35.2867 9.28035 35.374 9.77662 35.2653 10.4622ZM48.2542 10.398H50.8514C51.1289 10.398 51.3407 10.6469 51.2963 10.9212L49.8926 19.8337C49.8339 20.2018 49.5199 20.4721 49.148 20.4721H46.8085C46.5318 20.4721 46.3193 20.2241 46.3629 19.9474L46.4787 19.2238C46.4787 19.2238 45.1963 20.7146 42.8839 20.7146C41.5365 20.7146 40.4041 20.325 39.6126 19.39C38.7498 18.373 38.3969 16.9148 38.6452 15.3898C39.1226 12.3325 41.5738 10.1531 44.4438 10.1531C45.6951 10.1531 46.9489 10.4266 47.5112 11.2448L47.6928 11.5088L47.8078 10.7805C47.8419 10.5602 48.033 10.398 48.2542 10.398ZM47.2313 15.4671C46.9807 16.9548 45.803 17.9535 44.301 17.9535C43.5469 17.9535 42.9442 17.7109 42.5572 17.2514C42.1733 16.795 42.0274 16.1454 42.1496 15.4218C42.3835 13.9469 43.581 12.9156 45.06 12.9156C45.7975 12.9156 46.397 13.1613 46.7919 13.6248C47.1876 14.0932 47.3447 14.7467 47.2313 15.4671ZM62.0735 10.3981H64.6834C65.049 10.3981 65.2623 10.8092 65.0545 11.1098L56.3741 23.6755C56.2337 23.8791 56.0021 24 55.7547 24H53.148C52.7809 24 52.5668 23.5856 52.7793 23.2842L55.4819 19.4581L52.6072 10.9977C52.5081 10.7034 52.7246 10.3981 53.0362 10.3981H55.6009C55.9339 10.3981 56.2282 10.6176 56.3241 10.9373L57.8499 16.047L61.4494 10.7297C61.5906 10.5221 61.8245 10.3981 62.0735 10.3981Z" fill="#253B80"/>
<path d="M5.76214 23.1862L6.17689 20.5442L5.25302 20.5227H0.841423L3.90726 1.02762C3.91677 0.968768 3.9477 0.913893 3.9929 0.874923C4.0381 0.835954 4.096 0.814481 4.15627 0.814481H11.5948C14.0643 0.814481 15.7685 1.32983 16.6583 2.34702C17.0754 2.82419 17.3411 3.32284 17.4696 3.8716C17.6044 4.44739 17.6068 5.13532 17.4751 5.97436L17.4656 6.0356V6.57322L17.8827 6.81022C18.234 6.99711 18.5132 7.21105 18.7273 7.456C19.0842 7.86399 19.3149 8.38252 19.4125 8.99728C19.5132 9.62954 19.4799 10.3819 19.3149 11.2337C19.1246 12.2135 18.8169 13.0668 18.4014 13.7651C18.0191 14.4085 17.5322 14.9421 16.9541 15.3557C16.4021 15.7486 15.7463 16.0468 15.0048 16.2377C14.2864 16.4253 13.4672 16.52 12.5687 16.52H11.9898C11.5758 16.52 11.1737 16.6695 10.8581 16.9375C10.5417 17.2111 10.3323 17.5849 10.2681 17.9937L10.2245 18.2315L9.49173 22.8879L9.45843 23.0589C9.4497 23.113 9.43464 23.14 9.41243 23.1583C9.39261 23.175 9.36406 23.1862 9.3363 23.1862H5.76214Z" fill="#253B80"/>
<path d="M18.2776 6.09679V6.09679V6.09679C18.2553 6.23915 18.23 6.38469 18.2014 6.5342C17.2205 11.5851 13.8644 13.33 9.57807 13.33H7.39567C6.87148 13.33 6.42977 13.7117 6.34809 14.2303V14.2303V14.2303L5.23071 21.337L4.9143 23.3515C4.86117 23.6919 5.12286 23.9989 5.46545 23.9989H9.3362C9.79457 23.9989 10.1839 23.6649 10.2561 23.2116L10.2942 23.0143L11.023 18.3762L11.0698 18.1217C11.1411 17.6668 11.5313 17.3327 11.9897 17.3327H12.5686C16.3188 17.3327 19.2546 15.8058 20.1126 11.3871C20.4711 9.54122 20.2855 7.99993 19.337 6.91594C19.05 6.58908 18.6939 6.31788 18.2776 6.09679Z" fill="#179BD7"/>
<path d="M17.2515 5.68821C17.1016 5.64447 16.947 5.60471 16.7884 5.56892C16.629 5.53393 16.4656 5.50291 16.2975 5.47587C15.7091 5.38043 15.0643 5.3351 14.3736 5.3351H8.54329C8.39975 5.3351 8.26335 5.36771 8.14123 5.42656C7.87239 5.55619 7.67255 5.81148 7.62417 6.12404L6.38388 14.0022L6.3482 14.2321C6.42988 13.7135 6.87159 13.3318 7.39578 13.3318H9.57819C13.8645 13.3318 17.2206 11.5861 18.2015 6.536C18.2309 6.38648 18.2555 6.24095 18.2777 6.09859C18.0294 5.96657 17.7606 5.85364 17.4712 5.7574C17.3998 5.73355 17.326 5.71048 17.2515 5.68821Z" fill="#222D65"/>
<path d="M7.62413 6.12298C7.6725 5.81043 7.87234 5.55514 8.14118 5.4263C8.2641 5.36745 8.39971 5.33485 8.54324 5.33485H14.3736C15.0643 5.33485 15.709 5.38018 16.2974 5.47561C16.4656 5.50265 16.6289 5.53367 16.7883 5.56866C16.9469 5.60445 17.1016 5.64421 17.2514 5.68796C17.326 5.71022 17.3997 5.73329 17.4719 5.75635C17.7614 5.85258 18.0302 5.96631 18.2784 6.09753C18.5702 4.23097 18.276 2.96009 17.2697 1.8093C16.1602 0.542392 14.1579 0 11.5956 0H4.15702C3.63363 0 3.18716 0.381742 3.10627 0.90107L0.00792138 20.5966C-0.0531415 20.9863 0.246622 21.3378 0.638376 21.3378H5.23078L6.38384 14.0012L7.62413 6.12298Z" fill="#253B80"/>
</svg>
