<svg width="98" height="48" viewBox="0 0 98 48" fill="none" xmlns="http://www.w3.org/2000/svg">
<g id="Payment/Visa">
<g id="Visa">
<path id="path" fill-rule="evenodd" clip-rule="evenodd" d="M70.5791 9.2949C69.0279 8.67949 66.5675 8 63.5253 8C55.7589 8 50.2899 12.1415 50.2563 18.0625C50.1918 22.431 54.172 24.8574 57.1488 26.314C60.1915 27.8024 61.2258 28.7739 61.2258 30.1007C61.1948 32.1383 58.7672 33.0775 56.5029 33.0775C53.363 33.0775 51.6807 32.5933 49.124 31.4596L48.0884 30.9737L46.9879 37.8013C48.8324 38.6416 52.2307 39.3873 55.7589 39.42C64.0108 39.42 69.3831 35.3426 69.4468 29.0328C69.4782 25.5704 67.3765 22.9174 62.8454 20.7495C60.0947 19.3578 58.4102 18.4194 58.4102 16.9955C58.4425 15.701 59.835 14.3752 62.94 14.3752C65.4967 14.3102 67.3752 14.9248 68.7982 15.5398L69.5096 15.8627L70.5791 9.2949ZM42.0697 38.9672H34.2053L39.1243 8.55179H46.9883L42.0697 38.9672ZM84.6557 8.55179H90.7389L97.0836 38.9668H89.8018C89.8018 38.9668 89.0892 35.4721 88.8634 34.4043H78.7661C78.4741 35.2128 77.1155 38.9668 77.1155 38.9668H68.8636L80.5453 11.0754C81.3546 9.1014 82.7798 8.55179 84.6557 8.55179ZM81.0315 28.1909C81.6791 26.4435 84.1713 19.6809 84.1713 19.6809C84.1581 19.7071 84.2609 19.4221 84.4138 18.9983L84.4141 18.9975L84.4142 18.9973C84.6399 18.3715 84.9746 17.4438 85.206 16.769L85.7556 19.3897C85.7556 19.3897 87.2449 26.6702 87.5683 28.1909H81.0315ZM19.9343 29.2922L27.6362 8.55179H35.9522L23.5906 38.9349H15.2741L8.21948 12.3367C13.203 14.9588 17.6687 20.2322 19.0926 25.0858L19.9343 29.2922Z" fill="#00579F"/>
<path id="path_2" d="M12.7826 8.55176H0.129447L0 9.16631C9.87025 11.6903 16.4071 17.7743 19.0928 25.087L16.3422 11.1084C15.8893 9.16588 14.4977 8.61584 12.7826 8.55176Z" fill="#FAA61A"/>
</g>
</g>
</svg>
